# xmcd CD database file
#
# Track frame offsets:
#	150
#	14602
#	35565
#	51520
#	74302
#	96340
#	110610
#	132382
#	144540
#	161730
#	176147
#	195462
#
# Disc length: 2827 seconds
#
# Revision: 3
# Processed by: cddbd v1.5.2PL0 Copyright (c) Steve Scherf et al.
# Submitted via: CDex 1.51
#
DISCID=b70b090c
DTITLE=Vários - Several - As 12 Mais vol. 8
DYEAR=1900
DGENRE=Pop/Rock
TTITLE0=Liverpool Express - You are my love
TTITLE1=England Dan and John Ford Coley - Love Is The Answer
TTITLE2=Debbie Gibson - Lost In Your Eyes
TTITLE3=Foreigner - I Want To Know What Love Is
TTITLE4=Bette Middler - When A Man Loves A Woman
TTITLE5=Trini Lopez - Strangers In The Night
TTITLE6=Laura Branigan - Gloria
TTITLE7=Otis Redding - (Sittin' On) The Dock Of The Bay
TTITLE8=Christopher Corss - Best That You Can Do (Arthur's Theme)
TTITLE9=Bread - Make It With You
TTITLE10=Carly Simon - You're So Vain
TTITLE11=Tower Of Power - So Very Hard To Go
EXTD=
EXTT0=
EXTT1=
EXTT2=
EXTT3=
EXTT4=
EXTT5=
EXTT6=
EXTT7=
EXTT8=
EXTT9=
EXTT10=
EXTT11=
PLAYORDER=
